<svg xmlns="http://www.w3.org/2000/svg" xmlns:xlink="http://www.w3.org/1999/xlink" width="3000" zoomAndPan="magnify" viewBox="0 0 2250 809.999993" height="1080" preserveAspectRatio="xMidYMid meet" version="1.0"><defs><clipPath id="e48139dfb5"><path d="M 862.988281 142.988281 L 1387.238281 142.988281 L 1387.238281 667.238281 L 862.988281 667.238281 Z M 862.988281 142.988281 " clip-rule="nonzero"/></clipPath></defs><rect x="-225" width="2700" fill="#ffffff" y="-80.999999" height="971.999992" fill-opacity="1"/><rect x="-225" width="2700" fill="#ffffff" y="-80.999999" height="971.999992" fill-opacity="1"/><rect x="-225" width="2700" fill="#ffffff" y="-80.999999" height="971.999992" fill-opacity="1"/><path fill="#ffde59" d="M 1381.222656 405.15625 C 1381.222656 409.347656 1381.121094 413.535156 1380.914062 417.71875 C 1380.710938 421.90625 1380.402344 426.085938 1379.992188 430.253906 C 1379.582031 434.425781 1379.066406 438.582031 1378.453125 442.730469 C 1377.835938 446.875 1377.121094 451 1376.304688 455.113281 C 1375.484375 459.222656 1374.570312 463.308594 1373.550781 467.375 C 1372.53125 471.441406 1371.414062 475.476562 1370.199219 479.488281 C 1368.980469 483.5 1367.667969 487.476562 1366.253906 491.421875 C 1364.84375 495.367188 1363.335938 499.277344 1361.730469 503.148438 C 1360.128906 507.019531 1358.429688 510.851562 1356.640625 514.640625 C 1354.847656 518.425781 1352.964844 522.167969 1350.988281 525.867188 C 1349.011719 529.5625 1346.949219 533.207031 1344.792969 536.800781 C 1342.636719 540.394531 1340.398438 543.933594 1338.070312 547.417969 C 1335.742188 550.902344 1333.328125 554.328125 1330.832031 557.695312 C 1328.335938 561.0625 1325.757812 564.363281 1323.097656 567.605469 C 1320.441406 570.84375 1317.703125 574.015625 1314.890625 577.121094 C 1312.074219 580.226562 1309.1875 583.261719 1306.222656 586.222656 C 1303.261719 589.1875 1300.226562 592.074219 1297.121094 594.890625 C 1294.015625 597.703125 1290.84375 600.441406 1287.605469 603.097656 C 1284.363281 605.757812 1281.0625 608.335938 1277.695312 610.832031 C 1274.328125 613.328125 1270.902344 615.742188 1267.417969 618.070312 C 1263.933594 620.398438 1260.394531 622.636719 1256.800781 624.792969 C 1253.207031 626.949219 1249.5625 629.011719 1245.867188 630.988281 C 1242.167969 632.964844 1238.425781 634.847656 1234.640625 636.640625 C 1230.851562 638.429688 1227.019531 640.128906 1223.148438 641.730469 C 1219.277344 643.335938 1215.367188 644.84375 1211.421875 646.253906 C 1207.476562 647.667969 1203.5 648.980469 1199.488281 650.199219 C 1195.476562 651.414062 1191.441406 652.53125 1187.375 653.550781 C 1183.308594 654.570312 1179.222656 655.488281 1175.113281 656.304688 C 1171 657.121094 1166.875 657.835938 1162.726562 658.453125 C 1158.582031 659.066406 1154.425781 659.582031 1150.253906 659.992188 C 1146.082031 660.402344 1141.90625 660.710938 1137.71875 660.914062 C 1133.535156 661.121094 1129.347656 661.222656 1125.15625 661.222656 C 1120.964844 661.222656 1116.777344 661.121094 1112.589844 660.914062 C 1108.40625 660.710938 1104.226562 660.402344 1100.054688 659.992188 C 1095.886719 659.582031 1091.726562 659.066406 1087.582031 658.453125 C 1083.4375 657.835938 1079.308594 657.121094 1075.199219 656.304688 C 1071.089844 655.488281 1067 654.570312 1062.9375 653.550781 C 1058.871094 652.53125 1054.832031 651.414062 1050.824219 650.199219 C 1046.8125 648.980469 1042.835938 647.667969 1038.886719 646.253906 C 1034.941406 644.84375 1031.035156 643.335938 1027.160156 641.730469 C 1023.289062 640.128906 1019.460938 638.429688 1015.671875 636.640625 C 1011.882812 634.847656 1008.140625 632.964844 1004.445312 630.988281 C 1000.75 629.011719 997.105469 626.949219 993.507812 624.792969 C 989.914062 622.636719 986.375 620.398438 982.890625 618.070312 C 979.40625 615.742188 975.980469 613.328125 972.617188 610.832031 C 969.25 608.335938 965.945312 605.757812 962.707031 603.097656 C 959.46875 600.441406 956.296875 597.703125 953.191406 594.890625 C 950.085938 592.074219 947.050781 589.1875 944.085938 586.222656 C 941.125 583.261719 938.234375 580.226562 935.421875 577.121094 C 932.605469 574.015625 929.871094 570.84375 927.210938 567.605469 C 924.554688 564.363281 921.976562 561.0625 919.480469 557.695312 C 916.984375 554.328125 914.570312 550.902344 912.242188 547.417969 C 909.914062 543.933594 907.671875 540.394531 905.519531 536.800781 C 903.363281 533.207031 901.296875 529.5625 899.324219 525.867188 C 897.347656 522.167969 895.464844 518.425781 893.671875 514.640625 C 891.878906 510.851562 890.183594 507.019531 888.578125 503.148438 C 886.976562 499.277344 885.46875 495.367188 884.054688 491.421875 C 882.644531 487.476562 881.328125 483.5 880.113281 479.488281 C 878.894531 475.476562 877.777344 471.441406 876.761719 467.375 C 875.742188 463.308594 874.824219 459.222656 874.007812 455.113281 C 873.1875 451 872.472656 446.875 871.859375 442.730469 C 871.242188 438.582031 870.730469 434.425781 870.320312 430.253906 C 869.910156 426.085938 869.601562 421.90625 869.394531 417.71875 C 869.1875 413.535156 869.085938 409.347656 869.085938 405.15625 C 869.085938 400.964844 869.1875 396.777344 869.394531 392.589844 C 869.601562 388.40625 869.910156 384.226562 870.320312 380.054688 C 870.730469 375.886719 871.242188 371.726562 871.859375 367.582031 C 872.472656 363.4375 873.1875 359.308594 874.007812 355.199219 C 874.824219 351.089844 875.742188 347 876.761719 342.9375 C 877.777344 338.871094 878.894531 334.832031 880.113281 330.824219 C 881.328125 326.8125 882.644531 322.835938 884.054688 318.886719 C 885.46875 314.941406 886.976562 311.035156 888.578125 307.164062 C 890.183594 303.289062 891.878906 299.460938 893.671875 295.671875 C 895.464844 291.882812 897.347656 288.140625 899.324219 284.445312 C 901.296875 280.75 903.363281 277.105469 905.519531 273.507812 C 907.671875 269.914062 909.914062 266.375 912.242188 262.890625 C 914.570312 259.40625 916.984375 255.980469 919.480469 252.617188 C 921.976562 249.25 924.554688 245.945312 927.210938 242.707031 C 929.871094 239.46875 932.605469 236.296875 935.421875 233.191406 C 938.234375 230.085938 941.125 227.050781 944.085938 224.085938 C 947.050781 221.125 950.085938 218.234375 953.191406 215.421875 C 956.296875 212.605469 959.46875 209.871094 962.707031 207.210938 C 965.945312 204.554688 969.25 201.976562 972.617188 199.480469 C 975.980469 196.984375 979.40625 194.570312 982.890625 192.242188 C 986.375 189.914062 989.914062 187.671875 993.507812 185.519531 C 997.105469 183.363281 1000.75 181.296875 1004.445312 179.324219 C 1008.140625 177.347656 1011.882812 175.464844 1015.671875 173.671875 C 1019.460938 171.878906 1023.289062 170.183594 1027.160156 168.578125 C 1031.035156 166.976562 1034.941406 165.46875 1038.886719 164.054688 C 1042.835938 162.644531 1046.8125 161.328125 1050.824219 160.113281 C 1054.832031 158.894531 1058.871094 157.777344 1062.9375 156.761719 C 1067 155.742188 1071.089844 154.824219 1075.199219 154.007812 C 1079.308594 153.1875 1083.4375 152.472656 1087.582031 151.859375 C 1091.726562 151.242188 1095.886719 150.730469 1100.054688 150.320312 C 1104.226562 149.910156 1108.40625 149.601562 1112.589844 149.394531 C 1116.777344 149.1875 1120.964844 149.085938 1125.15625 149.085938 C 1129.347656 149.085938 1133.535156 149.1875 1137.71875 149.394531 C 1141.90625 149.601562 1146.082031 149.910156 1150.253906 150.320312 C 1154.425781 150.730469 1158.582031 151.242188 1162.726562 151.859375 C 1166.875 152.472656 1171 153.1875 1175.113281 154.007812 C 1179.222656 154.824219 1183.308594 155.742188 1187.375 156.761719 C 1191.441406 157.777344 1195.476562 158.894531 1199.488281 160.113281 C 1203.5 161.328125 1207.476562 162.644531 1211.421875 164.054688 C 1215.367188 165.46875 1219.277344 166.976562 1223.148438 168.578125 C 1227.019531 170.183594 1230.851562 171.878906 1234.640625 173.671875 C 1238.425781 175.464844 1242.167969 177.347656 1245.867188 179.324219 C 1249.5625 181.296875 1253.207031 183.363281 1256.800781 185.519531 C 1260.394531 187.671875 1263.933594 189.914062 1267.417969 192.242188 C 1270.902344 194.570312 1274.328125 196.984375 1277.695312 199.480469 C 1281.0625 201.976562 1284.363281 204.554688 1287.605469 207.210938 C 1290.84375 209.871094 1294.015625 212.605469 1297.121094 215.421875 C 1300.226562 218.234375 1303.261719 221.125 1306.222656 224.085938 C 1309.1875 227.050781 1312.074219 230.085938 1314.890625 233.191406 C 1317.703125 236.296875 1320.441406 239.46875 1323.097656 242.707031 C 1325.757812 245.945312 1328.335938 249.25 1330.832031 252.617188 C 1333.328125 255.980469 1335.742188 259.40625 1338.070312 262.890625 C 1340.398438 266.375 1342.636719 269.914062 1344.792969 273.507812 C 1346.949219 277.105469 1349.011719 280.75 1350.988281 284.445312 C 1352.964844 288.140625 1354.847656 291.882812 1356.640625 295.671875 C 1358.429688 299.460938 1360.128906 303.289062 1361.730469 307.164062 C 1363.335938 311.035156 1364.84375 314.941406 1366.253906 318.886719 C 1367.667969 322.835938 1368.980469 326.8125 1370.199219 330.824219 C 1371.414062 334.832031 1372.53125 338.871094 1373.550781 342.9375 C 1374.566406 347 1375.484375 351.089844 1376.304688 355.199219 C 1377.121094 359.308594 1377.835938 363.4375 1378.453125 367.582031 C 1379.066406 371.726562 1379.582031 375.886719 1379.992188 380.054688 C 1380.402344 384.226562 1380.710938 388.40625 1380.914062 392.589844 C 1381.121094 396.777344 1381.222656 400.964844 1381.222656 405.15625 Z M 1381.222656 405.15625 " fill-opacity="1" fill-rule="nonzero"/><g clip-path="url(#e48139dfb5)"><path fill="#ffffff" d="M 1125.15625 667.320312 C 980.59375 667.320312 862.988281 549.714844 862.988281 405.15625 C 862.988281 260.59375 980.59375 142.988281 1125.15625 142.988281 C 1269.714844 142.988281 1387.324219 260.59375 1387.324219 405.15625 C 1387.324219 549.714844 1269.714844 667.320312 1125.15625 667.320312 Z M 1125.15625 155.183594 C 987.320312 155.183594 875.183594 267.320312 875.183594 405.15625 C 875.183594 542.988281 987.320312 655.128906 1125.15625 655.128906 C 1262.992188 655.128906 1375.128906 542.988281 1375.128906 405.15625 C 1375.128906 267.320312 1262.992188 155.183594 1125.15625 155.183594 Z M 1125.15625 155.183594 " fill-opacity="1" fill-rule="nonzero"/></g><path fill="#0054a4" d="M 1232.132812 537.070312 C 1256.222656 519.078125 1279.1875 493.84375 1284.351562 456.804688 C 1287.75 432.449219 1283.570312 408.519531 1275.796875 385.558594 C 1268.816406 364.9375 1259.144531 345.242188 1251.785156 324.730469 C 1246.167969 309.066406 1242.351562 292.757812 1237.65625 276.757812 C 1236.425781 272.570312 1235.503906 268.132812 1233.390625 264.402344 C 1229.597656 257.699219 1223.03125 256.1875 1216.09375 259.574219 C 1207.125 263.949219 1203.195312 271.71875 1201.933594 281.09375 C 1200.289062 293.285156 1203.335938 304.902344 1206.984375 316.335938 C 1211.316406 329.90625 1216.003906 343.359375 1220.523438 356.871094 C 1222.109375 361.613281 1220.6875 365.679688 1217.082031 368.773438 C 1213.492188 371.855469 1209.183594 372.683594 1204.78125 370.519531 C 1202.925781 369.609375 1201.242188 368.230469 1199.691406 366.828125 C 1158.605469 329.652344 1117.542969 292.445312 1076.480469 255.242188 C 1072.828125 251.9375 1069.226562 248.574219 1065.519531 245.328125 C 1057.308594 238.132812 1046.3125 238.75 1039.132812 246.746094 C 1032.242188 254.421875 1032.765625 265.449219 1040.738281 272.730469 C 1063.207031 293.257812 1085.800781 313.648438 1108.34375 334.09375 C 1118.25 343.074219 1128.15625 352.050781 1138.0625 361.027344 C 1138.585938 361.5 1139.128906 361.945312 1139.65625 362.410156 C 1142.429688 364.851562 1144.292969 367.734375 1141.34375 371 C 1138.394531 374.265625 1135.378906 372.703125 1132.628906 370.199219 C 1122.355469 360.84375 1112.058594 351.515625 1101.757812 342.191406 C 1073.722656 316.8125 1045.714844 291.40625 1017.628906 266.085938 C 1008.640625 257.980469 996.902344 258.917969 989.820312 268.042969 C 983.699219 275.933594 984.894531 286.226562 992.984375 293.570312 C 1020.203125 318.289062 1047.476562 342.949219 1074.722656 367.636719 C 1083.980469 376.023438 1093.1875 384.464844 1102.488281 392.796875 C 1105.398438 395.40625 1107.605469 398.246094 1104.363281 401.714844 C 1101.082031 405.230469 1098.035156 402.925781 1095.265625 400.417969 C 1066.066406 373.960938 1036.894531 347.476562 1007.628906 321.089844 C 998 312.40625 984.441406 314.589844 978.398438 325.554688 C 974.09375 333.363281 975.796875 342.066406 983.277344 348.863281 C 1011.003906 374.0625 1038.796875 399.1875 1066.5625 424.34375 C 1071.777344 429.070312 1076.9375 433.851562 1082.195312 438.527344 C 1084.960938 440.984375 1086.117188 443.761719 1083.425781 446.722656 C 1080.691406 449.730469 1077.859375 448.609375 1075.164062 446.164062 C 1053.910156 426.921875 1032.636719 407.699219 1011.332031 388.507812 C 1002.273438 380.351562 991.320312 380.667969 983.796875 389.191406 C 976.855469 397.046875 977.953125 408.101562 986.582031 415.90625 C 1024.027344 449.761719 1061.207031 483.925781 1099.09375 517.285156 C 1118.316406 534.210938 1140.316406 546.800781 1166.003906 551.578125 C 1187.898438 555.65625 1208.347656 551.738281 1232.132812 537.070312 Z M 1232.132812 537.070312 " fill-opacity="1" fill-rule="nonzero"/><path fill="#ff3131" d="M 1159.496094 602.355469 C 1188.617188 594.867188 1219.449219 580.257812 1238.308594 547.960938 C 1250.710938 526.726562 1255.941406 503.003906 1257.476562 478.8125 C 1258.855469 457.085938 1257.398438 435.191406 1258.390625 413.421875 C 1259.148438 396.796875 1261.816406 380.261719 1263.554688 363.679688 C 1264.007812 359.339844 1264.84375 354.882812 1264.308594 350.628906 C 1263.34375 342.988281 1257.847656 339.09375 1250.140625 339.585938 C 1240.183594 340.226562 1233.59375 345.917969 1228.863281 354.109375 C 1222.710938 364.761719 1221.113281 376.664062 1220.144531 388.628906 C 1218.992188 402.824219 1218.210938 417.054688 1217.253906 431.265625 C 1216.917969 436.257812 1214.058594 439.480469 1209.546875 440.96875 C 1205.054688 442.453125 1200.757812 441.582031 1197.503906 437.90625 C 1196.136719 436.359375 1195.101562 434.441406 1194.203125 432.558594 C 1170.332031 382.554688 1146.496094 332.53125 1122.652344 282.515625 C 1120.535156 278.066406 1118.480469 273.589844 1116.285156 269.179688 C 1111.425781 259.398438 1101.019531 255.792969 1091.339844 260.457031 C 1082.050781 264.9375 1078.339844 275.339844 1082.945312 285.105469 C 1095.929688 312.632812 1109.074219 340.078125 1122.15625 367.558594 C 1127.902344 379.628906 1133.652344 391.699219 1139.40625 403.765625 C 1139.707031 404.402344 1140.042969 405.019531 1140.355469 405.652344 C 1141.988281 408.960938 1142.621094 412.339844 1138.648438 414.238281 C 1134.679688 416.136719 1132.484375 413.546875 1130.894531 410.183594 C 1124.945312 397.625 1118.964844 385.085938 1112.984375 372.542969 C 1096.699219 338.414062 1080.453125 304.269531 1064.101562 270.171875 C 1058.867188 259.261719 1047.652344 255.664062 1037.632812 261.414062 C 1028.972656 266.386719 1026.164062 276.363281 1030.855469 286.230469 C 1046.636719 319.4375 1062.488281 352.613281 1078.304688 385.804688 C 1083.679688 397.082031 1088.988281 408.386719 1094.425781 419.632812 C 1096.125 423.148438 1097.085938 426.617188 1092.769531 428.59375 C 1088.398438 430.59375 1086.453125 427.304688 1084.847656 423.933594 C 1067.894531 388.363281 1050.980469 352.777344 1033.941406 317.246094 C 1028.335938 305.554688 1014.964844 302.421875 1005.207031 310.265625 C 998.257812 315.855469 996.523438 324.550781 1000.859375 333.679688 C 1016.929688 367.527344 1033.085938 401.332031 1049.203125 435.152344 C 1052.230469 441.503906 1055.1875 447.890625 1058.273438 454.214844 C 1059.894531 457.539062 1059.910156 460.546875 1056.296875 462.261719 C 1052.621094 464.003906 1050.429688 461.890625 1048.863281 458.605469 C 1036.519531 432.726562 1024.152344 406.859375 1011.742188 381.015625 C 1006.464844 370.023438 996.210938 366.15625 986.011719 371.175781 C 976.605469 375.804688 973.417969 386.449219 978.433594 396.945312 C 1000.199219 442.496094 1021.601562 488.226562 1043.964844 533.484375 C 1055.3125 556.445312 1070.875 576.449219 1092.816406 590.636719 C 1111.519531 602.730469 1131.925781 606.878906 1159.496094 602.355469 Z M 1159.496094 602.355469 " fill-opacity="1" fill-rule="nonzero"/><path fill="#0054a4" d="M 1138.972656 607.8125 C 1120.929688 607.8125 1105.558594 603.230469 1090.828125 593.710938 C 1069.882812 580.167969 1053.480469 560.996094 1040.6875 535.101562 C 1024.449219 502.246094 1008.464844 468.601562 993.003906 436.066406 C 987.054688 423.546875 981.109375 411.027344 975.132812 398.523438 C 969.289062 386.292969 973.183594 373.414062 984.394531 367.894531 C 990.117188 365.082031 996.007812 364.582031 1001.433594 366.457031 C 1007.21875 368.460938 1011.921875 372.945312 1015.039062 379.429688 C 1027.449219 405.28125 1039.820312 431.148438 1052.164062 457.03125 C 1053.382812 459.589844 1053.859375 459.371094 1054.726562 458.957031 C 1055.3125 458.675781 1055.578125 458.417969 1055.628906 458.277344 C 1055.714844 458.027344 1055.675781 457.234375 1054.984375 455.816406 C 1052.976562 451.699219 1051.019531 447.554688 1049.066406 443.410156 C 1048.011719 441.179688 1046.960938 438.953125 1045.902344 436.726562 L 1031.382812 406.285156 C 1020.09375 382.613281 1008.804688 358.941406 997.554688 335.246094 C 992.570312 324.746094 994.625 314.082031 1002.914062 307.417969 C 1008.386719 303.015625 1015.246094 301.34375 1021.730469 302.8125 C 1028.398438 304.328125 1034.050781 309.011719 1037.242188 315.664062 C 1050.058594 342.390625 1062.804688 369.15625 1075.550781 395.914062 L 1088.152344 422.359375 C 1089.839844 425.90625 1090.21875 425.730469 1091.246094 425.265625 C 1091.933594 424.949219 1092.15625 424.691406 1092.179688 424.625 C 1092.222656 424.507812 1092.371094 423.789062 1091.132812 421.222656 C 1087.503906 413.71875 1083.929688 406.1875 1080.359375 398.65625 L 1059.832031 355.566406 C 1049.0625 332.984375 1038.289062 310.398438 1027.550781 287.800781 C 1022.097656 276.320312 1025.492188 264.164062 1035.8125 258.242188 C 1041.472656 254.992188 1047.753906 254.1875 1053.492188 255.972656 C 1059.445312 257.820312 1064.382812 262.300781 1067.398438 268.589844 C 1079.722656 294.28125 1091.984375 320.003906 1104.246094 345.726562 L 1116.285156 370.96875 C 1122.269531 383.511719 1128.253906 396.058594 1134.199219 408.621094 C 1135.273438 410.886719 1135.964844 411.183594 1136.039062 411.210938 C 1136.140625 411.238281 1136.464844 411.230469 1137.070312 410.941406 C 1137.636719 410.671875 1137.886719 410.421875 1137.933594 410.292969 C 1137.960938 410.214844 1138.160156 409.476562 1137.074219 407.273438 L 1136.679688 406.496094 C 1136.484375 406.113281 1136.289062 405.730469 1136.101562 405.339844 L 1107.929688 346.210938 C 1098.46875 326.375 1089.011719 306.542969 1079.636719 286.664062 C 1074.242188 275.226562 1078.589844 262.542969 1089.75 257.164062 C 1101.269531 251.605469 1113.808594 255.976562 1119.5625 267.550781 C 1121.066406 270.574219 1122.503906 273.628906 1123.941406 276.683594 L 1135.941406 301.890625 C 1156.453125 344.925781 1176.964844 387.960938 1197.503906 430.980469 C 1198.222656 432.488281 1199.113281 434.203125 1200.246094 435.480469 C 1202.414062 437.933594 1205.078125 438.59375 1208.398438 437.496094 C 1211.726562 436.398438 1213.382812 434.339844 1213.605469 431.019531 C 1213.914062 426.433594 1214.203125 421.839844 1214.496094 417.25 C 1215.09375 407.773438 1215.714844 397.972656 1216.496094 388.332031 C 1217.414062 377.003906 1218.957031 363.945312 1225.695312 352.28125 C 1231.664062 341.945312 1239.585938 336.597656 1249.910156 335.9375 C 1259.886719 335.296875 1266.75 340.757812 1267.9375 350.171875 C 1268.414062 353.96875 1267.953125 357.710938 1267.507812 361.332031 C 1267.398438 362.246094 1267.285156 363.152344 1267.191406 364.058594 C 1266.621094 369.507812 1265.949219 374.953125 1265.277344 380.402344 C 1263.933594 391.289062 1262.546875 402.546875 1262.042969 413.589844 C 1261.589844 423.582031 1261.65625 433.820312 1261.722656 443.722656 C 1261.796875 455.292969 1261.875 467.261719 1261.128906 479.042969 C 1259.347656 507.058594 1252.914062 530.207031 1241.464844 549.808594 C 1225.171875 577.714844 1198.65625 596.0625 1160.410156 605.898438 L 1160.089844 605.964844 C 1152.621094 607.191406 1145.617188 607.8125 1138.972656 607.8125 Z M 994.800781 372.667969 C 992.46875 372.667969 990.042969 373.269531 987.625 374.457031 C 980.054688 378.1875 977.632812 386.785156 981.734375 395.371094 C 987.710938 407.878906 993.664062 420.402344 999.613281 432.925781 C 1015.058594 465.4375 1031.035156 499.058594 1047.246094 531.859375 C 1059.4375 556.539062 1074.996094 574.761719 1094.800781 587.566406 C 1113.277344 599.507812 1132.996094 602.96875 1158.746094 598.773438 C 1194.917969 589.441406 1219.910156 572.214844 1235.148438 546.117188 C 1246.011719 527.523438 1252.117188 505.433594 1253.828125 478.582031 C 1254.558594 467.050781 1254.480469 455.21875 1254.40625 443.769531 C 1254.339844 433.777344 1254.269531 423.441406 1254.738281 413.257812 C 1255.25 401.933594 1256.65625 390.53125 1258.015625 379.503906 C 1258.683594 374.101562 1259.347656 368.703125 1259.914062 363.296875 C 1260.015625 362.347656 1260.128906 361.394531 1260.246094 360.441406 C 1260.65625 357.117188 1261.039062 353.980469 1260.679688 351.085938 C 1259.796875 344.105469 1254.582031 342.976562 1250.375 343.238281 C 1242.578125 343.738281 1236.75 347.773438 1232.03125 355.941406 C 1226.054688 366.285156 1224.640625 378.390625 1223.789062 388.921875 C 1223.011719 398.5 1222.394531 408.265625 1221.796875 417.710938 C 1221.507812 422.3125 1221.214844 426.914062 1220.90625 431.511719 C 1220.480469 437.816406 1216.855469 442.40625 1210.695312 444.441406 C 1204.640625 446.445312 1198.84375 444.9375 1194.769531 440.332031 C 1193.035156 438.375 1191.839844 436.101562 1190.902344 434.132812 C 1170.359375 391.109375 1149.847656 348.074219 1129.339844 305.039062 L 1117.324219 279.800781 C 1115.90625 276.792969 1114.492188 273.785156 1113.011719 270.804688 C 1109.058594 262.859375 1100.800781 259.960938 1092.929688 263.753906 C 1085.371094 267.398438 1082.566406 275.722656 1086.253906 283.542969 C 1095.625 303.410156 1105.078125 323.234375 1114.53125 343.0625 L 1142.707031 402.191406 C 1142.863281 402.515625 1143.027344 402.835938 1143.191406 403.160156 L 1143.636719 404.042969 C 1145.296875 407.402344 1145.695312 410.230469 1144.847656 412.683594 C 1144.121094 414.785156 1142.566406 416.421875 1140.226562 417.542969 C 1137.898438 418.652344 1135.664062 418.84375 1133.589844 418.105469 C 1130.371094 416.960938 1128.621094 413.929688 1127.585938 411.75 C 1121.640625 399.195312 1115.660156 386.65625 1109.679688 374.121094 L 1097.640625 348.875 C 1085.382812 323.15625 1073.121094 297.441406 1060.800781 271.753906 C 1058.675781 267.320312 1055.308594 264.195312 1051.324219 262.957031 C 1047.546875 261.785156 1043.332031 262.363281 1039.457031 264.589844 C 1032.375 268.652344 1030.296875 276.53125 1034.160156 284.660156 C 1044.894531 307.253906 1055.667969 329.835938 1066.4375 352.417969 L 1086.96875 395.519531 C 1090.535156 403.035156 1094.097656 410.550781 1097.71875 418.039062 C 1099.023438 420.742188 1100.207031 423.929688 1099.0625 427.105469 C 1098.308594 429.191406 1096.707031 430.8125 1094.292969 431.917969 C 1086.34375 435.5625 1082.730469 427.996094 1081.546875 425.507812 L 1068.945312 399.0625 C 1056.203125 372.304688 1043.457031 345.550781 1030.644531 318.828125 C 1028.394531 314.132812 1024.652344 310.980469 1020.109375 309.949219 C 1015.753906 308.960938 1011.273438 310.085938 1007.5 313.117188 C 1001.820312 317.683594 1000.601562 324.609375 1004.164062 332.109375 C 1015.410156 355.796875 1026.699219 379.46875 1037.988281 403.132812 L 1052.503906 433.578125 C 1053.570312 435.8125 1054.625 438.050781 1055.679688 440.289062 C 1057.625 444.402344 1059.5625 448.519531 1061.5625 452.609375 C 1063.03125 455.621094 1063.355469 458.34375 1062.53125 460.695312 C 1062.023438 462.148438 1060.800781 464.171875 1057.863281 465.566406 C 1055.480469 466.699219 1049.5 468.441406 1045.5625 460.179688 C 1033.21875 434.304688 1020.855469 408.441406 1008.441406 382.597656 C 1006.191406 377.910156 1002.941406 374.722656 999.042969 373.375 C 997.679688 372.902344 996.261719 372.667969 994.800781 372.667969 Z M 994.800781 372.667969 " fill-opacity="1" fill-rule="nonzero"/><path fill="#000000" d="M 1132.453125 250.613281 L 1127.015625 252.648438 C 1123.671875 253.894531 1119.917969 252.183594 1118.667969 248.84375 L 1104.300781 210.417969 C 1103.050781 207.078125 1104.761719 203.324219 1108.101562 202.074219 L 1113.539062 200.039062 C 1116.882812 198.789062 1120.636719 200.5 1121.886719 203.84375 L 1136.253906 242.265625 C 1137.503906 245.609375 1135.792969 249.363281 1132.453125 250.613281 Z M 1132.453125 250.613281 " fill-opacity="1" fill-rule="nonzero"/><path fill="#000000" d="M 1161.367188 245.304688 L 1155.6875 244.09375 C 1152.199219 243.347656 1149.957031 239.886719 1150.699219 236.398438 L 1159.265625 196.277344 C 1160.007812 192.789062 1163.472656 190.546875 1166.960938 191.289062 L 1172.636719 192.503906 C 1176.125 193.246094 1178.371094 196.710938 1177.625 200.199219 L 1169.0625 240.316406 C 1168.316406 243.804688 1164.855469 246.050781 1161.367188 245.304688 Z M 1161.367188 245.304688 " fill-opacity="1" fill-rule="nonzero"/><path fill="#000000" d="M 1180.324219 267.246094 L 1176.507812 262.871094 C 1174.160156 260.183594 1174.441406 256.066406 1177.125 253.722656 L 1208.027344 226.738281 C 1210.714844 224.394531 1214.832031 224.671875 1217.179688 227.359375 L 1220.996094 231.734375 C 1223.34375 234.417969 1223.0625 238.535156 1220.378906 240.882812 L 1189.476562 267.867188 C 1186.789062 270.210938 1182.671875 269.933594 1180.324219 267.246094 Z M 1180.324219 267.246094 " fill-opacity="1" fill-rule="nonzero"/><path fill="#000000" d="M 1013.472656 507.140625 L 1018.917969 509.160156 C 1022.261719 510.398438 1023.984375 514.152344 1022.742188 517.496094 L 1008.472656 555.957031 C 1007.230469 559.300781 1003.480469 561.023438 1000.136719 559.78125 L 994.691406 557.761719 C 991.347656 556.519531 989.628906 552.769531 990.867188 549.425781 L 1005.136719 510.964844 C 1006.378906 507.621094 1010.128906 505.898438 1013.472656 507.140625 Z M 1013.472656 507.140625 " fill-opacity="1" fill-rule="nonzero"/><path fill="#000000" d="M 988.132812 492.238281 L 991.636719 496.867188 C 993.785156 499.714844 993.21875 503.800781 990.375 505.953125 L 957.648438 530.695312 C 954.804688 532.84375 950.71875 532.277344 948.566406 529.433594 L 945.066406 524.800781 C 942.914062 521.953125 943.480469 517.867188 946.328125 515.714844 L 979.050781 490.976562 C 981.894531 488.824219 985.984375 489.390625 988.132812 492.238281 Z M 988.132812 492.238281 " fill-opacity="1" fill-rule="nonzero"/><path fill="#000000" d="M 988.148438 463.242188 L 988.175781 469.046875 C 988.191406 472.613281 985.289062 475.546875 981.71875 475.5625 L 940.695312 475.753906 C 937.128906 475.769531 934.199219 472.867188 934.183594 469.300781 L 934.15625 463.492188 C 934.136719 459.925781 937.042969 456.996094 940.609375 456.976562 L 981.632812 456.785156 C 985.199219 456.769531 988.132812 459.675781 988.148438 463.242188 Z M 988.148438 463.242188 " fill-opacity="1" fill-rule="nonzero"/></svg>